<?xml version="1.0" ?><svg id="Layer_1" style="enable-background:new 0 0 52 52;" version="1.1" viewBox="0 0 52 52" xml:space="preserve" xmlns="http://www.w3.org/2000/svg" xmlns:xlink="http://www.w3.org/1999/xlink"><style type="text/css">
	.st0{fill:#F90606;}
</style><g><path d="M13.9549322,23.4346619H4.7567515C3.6683114,25.646759,3.035804,28.061615,2.9021981,30.54599h10.500061   C13.4429083,28.0139465,13.6307135,25.6214294,13.9549322,23.4346619z"/><path d="M22.4311905,13.131012c-0.0343628-0.0020752-0.0689087-0.0028076-0.1033325-0.0046997v8.3083496h3.9536133   C25.3619766,17.1247864,23.9168472,14.1423645,22.4311905,13.131012z"/><path d="M16.3742447,21.4346619h3.9536133v-8.3215332c-0.0281372,0.0015259-0.0565796,0.0010986-0.0846558,0.0026855   C18.7510147,14.1148376,17.2976456,17.1066589,16.3742447,21.4346619z"/><path d="M13.4023199,32.54599H2.9023812c0.1344604,2.4777222,0.7680054,4.8971558,1.8576052,7.1230469h9.1970215   C13.631568,37.4792175,13.4432135,35.082489,13.4023199,32.54599z"/><path d="M26.6541519,23.4346619H22.327858V30.54599h4.9257813C27.2087173,27.95755,26.9956436,25.5681458,26.6541519,23.4346619z"/><path d="M28.6987076,39.6690369h9.2051392c1.0892944-2.2255859,1.7228394-4.6450806,1.8572998-7.1230469H29.2533951   C29.2125015,35.082489,29.024147,37.4792175,28.6987076,39.6690369z"/><path d="M22.327858,41.6690369v8.3169556c0.0233765-0.0012207,0.0471191-0.0009155,0.0705566-0.0022583   c1.4953613-0.9884033,2.9532471-3.9814453,3.8797607-8.3146973H22.327858z"/><path d="M20.2569962,49.98349c0.0234985,0.0013428,0.0473633,0.0010376,0.0708618,0.0022583v-8.3167114h-3.9503174   C17.3039322,46.0019836,18.7616959,48.9949036,20.2569962,49.98349z"/><path d="M27.2535782,32.54599H22.327858v7.1230469h4.3236694C26.9943619,37.5326233,27.2083511,35.1392517,27.2535782,32.54599z"/><path d="M15.4020758,30.54599h4.9257822v-7.1113281H16.001564C15.6600714,25.5681458,15.4469976,27.95755,15.4020758,30.54599z"/><path d="M5.8978648,41.6690369c2.6313472,4.0211182,6.6185908,6.7849121,11.1766968,7.8511963   c-1.175416-1.9049683-2.1333017-4.5905762-2.7758799-7.8511963H5.8978648z"/><path d="M25.5798111,49.5223083c4.5615845-1.0647583,8.5523682-3.8292847,11.1861572-7.8532715h-8.4089355   C27.7142105,44.9308777,26.7558975,47.617218,25.5798111,49.5223083z"/><path d="M17.0668716,13.5799255c-4.5593882,1.0679932-8.5436411,3.8335571-11.1673584,7.8547363h8.3964233   C14.937171,18.1742859,15.8931036,15.4872131,17.0668716,13.5799255z"/><path d="M28.6923599,21.4346619c-0.1889038-1.0521851-0.418457-2.4578247-0.6115723-4.0263672   c-0.133667-1.1260376-0.2161865-2.1640625-0.265625-3.1466675c-0.7214355-0.2710571-1.4628296-0.4797363-2.2119312-0.6589355   c1.1672535,1.9059448,2.1179371,4.5848389,2.7565479,7.8319702H28.6923599z"/><path d="M16.0041885,39.6690369h4.3236694V32.54599h-4.9257212C15.4473639,35.1392517,15.6613531,37.5326233,16.0041885,39.6690369   z"/><path d="M39.7506485,30.54599c-0.1016235-1.8312378-0.4634399-3.6343384-1.09198-5.3458862   c-0.328186,0.1447144-0.6591797,0.2894897-1.001709,0.4347534c-1.9375,0.828125-3.6396484,1.4589844-4.2685547,1.6650391   c-0.3232422,0.1230469-0.6640625,0.1845703-1.0126953,0.1845703c-0.5126953,0-1.0224781-0.1367188-1.4746094-0.3955078   c-0.6855469-0.3544922-1.2402344-1.0595703-1.4462891-1.8945313c-0.005188-0.0198975-0.1613159-0.6845093-0.3771362-1.7597656   h-0.3768921c0.3242188,2.1867676,0.5120239,4.5792847,0.5526733,7.1113281H39.7506485z"/><path class="st0" d="M48.6957779,9.0440369c-0.7300415-2.5100098-2.3900146-4.5700073-4.6800537-5.8200073   c-1.4299927-0.789978-3.0599976-1.210022-4.6900024-1.210022c-3.5599976,0-6.8499756,1.9500122-8.5699463,5.0800171   c-1.0200195,1.8800049-1.2600098,5.2700195-0.6900024,10.0700073c0.289978,2.3599854,0.6799927,4.4400024,0.8899536,5.4599609   c0.25,1.2800293,0.4400024,2.0900269,0.4400024,2.0900269c0.0700073,0.2800293,0.25,0.5100098,0.5,0.6400146   c0.1400146,0.0800171,0.3099976,0.1300049,0.4800415,0.1300049c0.1099854,0,0.2199707-0.0200195,0.3200073-0.0599976   c0.0799561-0.0200195,1.8399658-0.6300049,4.1799927-1.6300049c6.0599976-2.5700073,9.7699585-5.0300293,11.0199585-7.3099976   C49.1457291,14.1940002,49.4357681,11.5440369,48.6957779,9.0440369z M44.0157242,14.3540344   c-0.3199463,0.5800171-0.7399902,1.0700073-1.2299805,1.4799805c-0.9500122,0.8200073-2.1699829,1.289978-3.460022,1.289978   c-0.8999634,0-1.7799683-0.2199707-2.5699463-0.6599731c-0.3400269-0.1799927-0.6400146-0.4000244-0.9200439-0.6400146   c-1.8599854-1.5999756-2.4299927-4.3499756-1.2000122-6.5999756c0.9500122-1.7200317,2.7400513-2.7800293,4.7000122-2.7800293   c0.8900146,0,1.7700195,0.2300415,2.5599976,0.6600342c1.25,0.6799927,2.1500244,1.8099976,2.5599976,3.1799927   C44.855751,11.6540222,44.6957779,13.1040344,44.0157242,14.3540344z"/></g></svg>