<?xml version="1.0" ?><svg id="Layer_1" style="enable-background:new 0 0 52 52;" version="1.1" viewBox="0 0 52 52" xml:space="preserve" xmlns="http://www.w3.org/2000/svg" xmlns:xlink="http://www.w3.org/1999/xlink"><style type="text/css">
	.st0{fill:#F90606;}
</style><g><path class="st0" d="M50.0099792,44.0924911c0,0.5499878-0.4499512,1-1,1c0,0-0.0099487,0-0.0199585,0h-5.6799927   c-0.3200073,0-0.6199951-0.1500244-0.8099976-0.4100342c-0.1900024-0.25-0.2400513-0.5899658-0.1500244-0.8899536   l2.7999878-8.8500366V19.3924789h-17.25c-0.5499878,0-1-0.4400024-1-1c0-0.5499878,0.4500122-1,1-1h18.25   c0.5499878,0,1,0.4500122,1,1v16.539978l2.7399902,8.6800537C49.9700012,43.7524643,50.0099792,43.9225082,50.0099792,44.0924911z"/><path class="st0" d="M35.2799988,24.3424911V37.432457c0,0.0500488-0.0299683,0.1000366-0.0299683,0.1400146   c-0.0100098,0.0800171-0.0200195,0.1500244-0.0499878,0.2200317c-0.0200195,0.0599976-0.0599976,0.1099854-0.0900269,0.1599731   c-0.0299683,0.0499878-0.0599976,0.1099854-0.1099854,0.1600342c-0.0499878,0.0499878-0.1099854,0.0899658-0.1699829,0.1300049   c-0.0400391,0.0299683-0.0700073,0.0699463-0.1100464,0.0899658c-0.2699585,0.1300049-6.4699707,3.1199951-13.4099731,3.1199951   c-6.2399902,0-12.960022-2.9199829-13.3499756-3.0999756H7.9500427c0,0-0.0100098,0-0.0100098-0.0100098   c-0.0400391-0.0100098-0.0599976-0.039978-0.1000366-0.0700073c-0.0799561-0.039978-0.1499634-0.0800171-0.2099609-0.1500244   c-0.0499878-0.039978-0.0700073-0.0999756-0.1099854-0.1499634c-0.0300293-0.0599976-0.0800171-0.1000366-0.1000366-0.1699829   c-0.0299683-0.0700073-0.039978-0.1600342-0.0499878-0.2400513c-0.0100098-0.039978-0.0300293-0.0799561-0.0300293-0.1300049   V24.3424911l12.4700317,7.1599731l0.1099854,0.0500488c0.4500122,0.2299805,0.9199829,0.3399658,1.3900146,0.3399658   c0.4699707,0,0.9400024-0.1099854,1.3900146-0.3399658l0.0599976-0.0300293L35.2799988,24.3424911z"/><path d="M24.9047546,18.3954697c0-1.6542969,1.3457031-3,3-3h8.4990845l-14.593811-8.3529663   c-0.3099976-0.1799927-0.6900024-0.1799927-1,0L2.5000305,17.5224838   c-0.3200073,0.1799927-0.5100098,0.5100098-0.5100098,0.8699951s0.1900024,0.6900024,0.5100098,0.8699951l18.3099976,10.5   c0.1599731,0.0800171,0.3300171,0.1300049,0.5,0.1300049s0.3399658-0.0499878,0.5-0.1300049l14.5904541-8.3670044h-8.4957275   C26.2504578,21.3954697,24.9047546,20.0497665,24.9047546,18.3954697z"/></g></svg>