<?xml version="1.0" ?><svg id="Layer_1" style="enable-background:new 0 0 52 52;" version="1.1" viewBox="0 0 52 52" xml:space="preserve" xmlns="http://www.w3.org/2000/svg" xmlns:xlink="http://www.w3.org/1999/xlink"><style type="text/css">
	.st0{fill:#F90606;}
</style><g><path d="M24.9199829,13.3098059c0-4.3500366-2.5299683-8.3900146-6.4299927-10.2900391   c-0.3099976-0.1499634-0.6799927-0.1299438-0.9699707,0.0600586c-0.2900391,0.1799927-0.4700317,0.5-0.4700317,0.8399658v5.1199951   l-3.5899658,3.9199829L9.8699951,9.0397863V3.9197912c0-0.3399658-0.1799927-0.6599731-0.4699707-0.8399658   C9.1099854,2.889823,8.7399902,2.8698034,8.4299927,3.0197668C4.5300293,4.9197912,2,8.9597692,2,13.3098059   c0,4.645936,2.8012085,8.7991953,7.0426636,10.5664682V44.662468c0,2.4355469,1.9814453,4.4169922,4.4169922,4.4169922   c2.4360352,0,4.4174805-1.9814453,4.4174805-4.4169922V23.8763351   C22.1187744,22.1091843,24.9199829,17.9558029,24.9199829,13.3098059z"/><path class="st0" d="M49.3499756,31.0997849l-2.3999634-0.8999634c-0.1100464-0.3300171-0.25-0.6700439-0.4000244-1.0100098   l1.1099854-2.4400024c0.1700439-0.3800049,0.0900269-0.8300171-0.2000122-1.1199951l-3.1799927-3.1700439   c-0.289978-0.2999878-0.7399902-0.3799438-1.1199951-0.2099609l-2.3299561,1.0599976   c-0.3200073-0.1500244-0.6600342-0.2999878-1-0.4199829l-0.9400024-2.5200195   c-0.1500244-0.3900146-0.5200195-0.6500244-0.9400024-0.6500244H33.460022c-0.4100342,0-0.7900391,0.2600098-0.9299927,0.6500244   l-0.9000244,2.3999634c-0.3400269,0.1200562-0.6699829,0.2600098-1.0100098,0.4100342l-2.4500122-1.1099854   c-0.3800049-0.1799927-0.8200073-0.0900269-1.1199951,0.1999512l-3.1699829,3.1700439   c-0.289978,0.2999878-0.3699951,0.7399902-0.2000122,1.1199951l1.0599976,2.3300171   c-0.1599731,0.3299561-0.2999878,0.6599731-0.4299927,1.0099487l-2.5100098,0.9400024   c-0.3900146,0.1500244-0.6499634,0.5200195-0.6499634,0.9400024v4.4800415c0,0.4199829,0.2599487,0.789978,0.6499634,0.9400024   l2.4000244,0.8999634c0.1199951,0.3300171,0.25,0.6699829,0.4099731,1.0100098l-1.1199951,2.4400024   c-0.1699829,0.3800049-0.0899658,0.8300171,0.210022,1.1199951l3.1699829,3.1699829   c0.289978,0.3000488,0.7399902,0.3800049,1.1199951,0.210022l2.3300171-1.0599976   c0.3200073,0.1500244,0.6599731,0.2999878,1,0.4299927l0.9500122,2.5100098   c0.1399536,0.3900146,0.5199585,0.6500244,0.9299927,0.6500244h4.4899902c0.4099731,0,0.789978-0.2600098,0.9299927-0.6500244   l0.9000244-2.4000244c0.3399658-0.1199951,0.6799927-0.2600098,1.0100098-0.4099731l2.4499512,1.1099854   c0.3800049,0.1799927,0.8200073,0.0900269,1.1199951-0.2000122l3.1699829-3.1699829   c0.3000488-0.2999878,0.3800049-0.7399902,0.2000122-1.1199951l-1.0599976-2.3300171   c0.1600342-0.3200073,0.2999878-0.6599731,0.4299927-1.0100098l2.5100098-0.9400024   C49.7399902,37.3098068,50,36.9398117,50,36.5197678v-4.4799805C50,31.6198044,49.7399902,31.2498093,49.3499756,31.0997849z    M35.5800171,40.21978c-3.3500366,0-6.0700073-2.7299805-6.0700073-6.0700073c0-3.3399658,2.7199707-6.0599976,6.0700073-6.0599976   c3.3399658,0,6.0599976,2.7200317,6.0599976,6.0599976C41.6400146,37.4897995,38.9199829,40.21978,35.5800171,40.21978z"/></g></svg>