<?xml version="1.0" ?><svg id="Layer_1" style="enable-background:new 0 0 52 52;" version="1.1" viewBox="0 0 52 52" xml:space="preserve" xmlns="http://www.w3.org/2000/svg" xmlns:xlink="http://www.w3.org/1999/xlink"><style type="text/css">
	.st0{fill:#F90606;}
</style><g><path class="st0" d="M49.4608231,36.6707458l-2.4200439-1.2600098l0.8200073-2.6099854   c0.1100464-0.3499756,0.0200195-0.7399902-0.25-1.0100098l-1.7699585-1.7698975   c-0.2700195-0.2700195-0.6600342-0.3601074-1.0100098-0.25l-2.6099854,0.8199463l-1.2600098-2.4200439   c-0.1700439-0.3299561-0.5100098-0.5400391-0.8900146-0.5400391h-2.5100098c-0.3699951,0-0.7199707,0.210083-0.8900146,0.5400391   l-1.2600098,2.4200439l-2.6099854-0.8199463c-0.3499756-0.1101074-0.7399902-0.0200195-1,0.25l-1.7799683,1.7698975   c-0.2700195,0.2700195-0.3600464,0.6600342-0.25,1.0100098l0.8200073,2.6099854l-2.4200439,1.2600098   c-0.3299561,0.1700439-0.539978,0.5100098-0.539978,0.8900146v2.5100098c0,0.3699951,0.210022,0.7199707,0.539978,0.8900146   l2.4200439,1.2600098l-0.8200073,2.5999756c-0.1100464,0.3599854-0.0200195,0.75,0.25,1.0100098l1.7799683,1.7799072   c0.2600098,0.2700195,0.6500244,0.3601074,1,0.25l2.6099854-0.8199463l1.2600098,2.4200439   c0.1700439,0.3299561,0.5200195,0.5400391,0.8900146,0.5400391h2.5100098c0.3800049,0,0.7199707-0.210083,0.8900146-0.5400391   l1.2600098-2.4200439l2.6099854,0.8199463c0.3499756,0.1101074,0.7399902,0.0200195,1.0100098-0.25l1.7699585-1.7799072   c0.2700195-0.2600098,0.3600464-0.6500244,0.25-1.0100098l-0.8200073-2.5999756l2.4200439-1.2600098   c0.3299561-0.1700439,0.539978-0.5200195,0.539978-0.8900146v-2.5100098   C50.0008011,37.1807556,49.7907791,36.8407898,49.4608231,36.6707458z M38.8208084,43.3606873   c-2.5100098,0-4.5499878-2.039917-4.5499878-4.5499268c0-2.5,2.039978-4.539917,4.5499878-4.539917   c2.5,0,4.539978,2.039917,4.539978,4.539917C43.3607864,41.3207703,41.3208084,43.3606873,38.8208084,43.3606873z"/><path d="M32.5108109,25.2007751l1.2799683-3.5200195c0.1199951-0.3599854,0.0500488-0.75-0.2099609-1.0200195l-3.0300293-3.3100586   l2.7200317-3.5599365c0.2299805-0.2999268,0.2699585-0.6900635,0.1199951-1.0299072l-1.5900269-3.4001465   c-0.1599731-0.3398438-0.4899902-0.5599365-0.8699951-0.5799561l-4.4799805-0.1899414l-0.5900269-4.440064   c-0.0499878-0.3699951-0.2999878-0.6899414-0.6499634-0.8099365L21.6807938,2.06076   c-0.3499756-0.1300049-0.7399902-0.0499268-1.0200195,0.2000732l-3.2999878,3.039917l-3.5700083-2.7299805   c-0.2999878-0.2299805-0.6900024-0.2700195-1.0299683-0.1099854L9.3607855,4.0507503   C9.0208197,4.2107844,8.8007879,4.5407405,8.7907782,4.9107356L8.6007757,9.4007263L4.150825,9.9908142   c-0.3699954,0.0499268-0.6799929,0.2999268-0.8099978,0.6499023l-1.2800293,3.5300293   c-0.1300049,0.3500977-0.0499878,0.7399902,0.2000122,1.0100098l3.0399783,3.3100586l-2.7299807,3.5599365   C2.350776,22.3506775,2.3007882,22.750824,2.4608223,23.08078l1.5899661,3.4000244   c0.1600342,0.3399658,0.4899902,0.5599365,0.8699951,0.5799561l4.480041,0.1900635l0.5899658,4.4499512   c0.0499878,0.3699951,0.2999878,0.6799316,0.6500244,0.8100586l3.5299683,1.2698975   c0.1100464,0.0400391,0.2300415,0.0600586,0.3400269,0.0600586c0.25,0,0.4899902-0.0899658,0.6799927-0.2600098   l3.2999887-3.0400391l3.5700073,2.7301025c0.289978,0.2299805,0.6900024,0.2698975,1.0300293,0.1098633l3.3999634-1.5899658   c0.3300171-0.1500244,0.5599976-0.4899902,0.5700073-0.8599854l0.1900024-4.4799805l4.4500122-0.6000977   C32.0708084,25.8107605,32.380806,25.5507507,32.5108109,25.2007751z M20.5908279,23.620697   c-0.8400269,0.3901367-1.7400513,0.5900879-2.6600342,0.5900879c-2.4299936,0-4.6699839-1.4200439-5.7000132-3.6199951   c-0.7099609-1.5200195-0.789978-3.2301025-0.2199707-4.8100586c0.5800171-1.5799561,1.7299805-2.8399658,3.25-3.5499268   c0.8399668-0.4000244,1.7399912-0.6000977,2.6599741-0.6000977c2.4299927,0,4.6700439,1.4300537,5.7000122,3.630127   C25.0908279,18.4007263,23.7307816,22.1507263,20.5908279,23.620697z"/></g></svg>